<svg width="20" height="13.657" xmlns="http://www.w3.org/2000/svg">
 <g>
  <title>background</title>
  <rect x="-1" y="-1" width="22" height="15.657" id="canvas_background" fill="none"/>
 </g>

 <g>
  <title>Layer 1</title>
  <g id="back-arrow" fill="#d8d8d8" stroke-miterlimit="10">
   <path d="m6.8283,13.15705c-0.13371,0 -0.25937,-0.05202 -0.35385,-0.14649l-5.65647,-5.65739c-0.01456,-0.01453 -0.02814,-0.02983 -0.04077,-0.04588l-0.03737,-0.0475l-0.04761,-0.03723c-0.12216,-0.09553 -0.19223,-0.23922 -0.19223,-0.39426c0,-0.15512 0.07014,-0.29888 0.19243,-0.39442l0.04772,-0.0373l0.03745,-0.0476c0.01264,-0.01608 0.0262,-0.03137 0.04029,-0.04547l5.65659,-5.65748c0.09408,-0.09387 0.21989,-0.1458 0.35382,-0.1458c0.13393,0 0.25974,0.05193 0.35425,0.14623c0.09407,0.09407 0.1461,0.21973 0.1461,0.35344c0,0.13371 -0.05203,0.25937 -0.1465,0.35385l-4.12174,4.12107l-0.85371,0.85358l1.20724,0l15.58596,0c0.27565,0 0.4999,0.22425 0.4999,0.4999c0,0.27565 -0.22425,0.4999 -0.4999,0.4999l-15.58596,0l-1.20724,0l0.85371,0.85358l4.12176,4.12111c0.19509,0.19508 0.19509,0.51254 -0.00002,0.70767c-0.09448,0.09447 -0.22014,0.14649 -0.35385,0.14649z" stroke="#ffffff" id="svg_1"/>
   <path stroke-width="0" d="m6.8283,12.65705l0.00035,-0.00059l-4.12176,-4.12109l-0.17023,-0.17021l4.2905,4.29179c0.00011,0.00002 0.00054,0.0001 0.00114,0.0001m0,1c-0.25605,0 -0.5121,-0.09764 -0.7074,-0.29294l-5.6565,-5.6574c-0.02887,-0.02881 -0.05556,-0.05899 -0.08016,-0.09026c-0.23397,-0.18295 -0.38424,-0.46784 -0.38424,-0.78815c0,-0.32045 0.15045,-0.60548 0.38459,-0.78842c0.0245,-0.03116 0.05108,-0.06126 0.07981,-0.08998l5.6565,-5.6574c0.1953,-0.19485 0.45135,-0.29227 0.7074,-0.29227c0.25605,0 0.5121,0.09742 0.7074,0.29227c0.3906,0.3906 0.3906,1.0242 0,1.4148l-4.12176,4.1211l15.58596,0c0.5526,0 0.9999,0.4473 0.9999,0.9999c0,0.5526 -0.4473,0.9999 -0.9999,0.9999l-15.58596,0l4.12176,4.1211c0.3906,0.3906 0.3906,1.02421 0,1.41481c-0.1953,0.1953 -0.45135,0.29294 -0.7074,0.29294z" stroke="#ffffff" fill="#ffffff" id="svg_2"/>
  </g>
 </g>
</svg>